<svg width="69" height="15" viewBox="0 0 69 15" fill="none" xmlns="http://www.w3.org/2000/svg">
<path d="M6.19231 0L7.58257 4.849L12.0815 4.849L8.4418 7.84585L9.83206 12.6949L6.19231 9.69801L2.55256 12.6949L3.94282 7.84585L0.303073 4.849L4.80205 4.849L6.19231 0Z" fill="#FFD600"/>
<path d="M62.8077 0L64.198 4.849L68.697 4.849L65.0572 7.84585L66.4475 12.6949L62.8077 9.69801L59.168 12.6949L60.5582 7.84585L56.9185 4.849L61.4175 4.849L62.8077 0Z" fill="#FFD600"/>
<path d="M48.6539 0L50.0441 4.849L54.5431 4.849L50.9033 7.84585L52.2936 12.6949L48.6539 9.69801L45.0141 12.6949L46.4044 7.84585L42.7646 4.849L47.2636 4.849L48.6539 0Z" fill="#FFD600"/>
<path d="M34.5 0L35.8902 4.849L40.3892 4.849L36.7495 7.84585L38.1397 12.6949L34.5 9.69801L30.8602 12.6949L32.2505 7.84585L28.6108 4.849L33.1097 4.849L34.5 0Z" fill="#FFD600"/>
<path d="M20.3462 0L21.7364 4.849L26.2354 4.849L22.5957 7.84585L23.9859 12.6949L20.3462 9.69801L16.7064 12.6949L18.0967 7.84585L14.4569 4.849L18.9559 4.849L20.3462 0Z" fill="#FFD600"/>
</svg>
